<svg xmlns="http://www.w3.org/2000/svg" width="512" height="180" viewBox="0 0 512 180" version="1.1"><path d="M 117.500 0.601 C 116.400 0.862, 110.775 2.004, 105 3.139 C 86.897 6.699, 64.806 14.914, 60.998 19.503 C 58.882 22.052, 59.240 30.489, 61.602 33.754 C 64.693 38.026, 73.117 41.597, 90.260 45.904 C 113.996 51.866, 121.905 56.244, 113.750 58.905 C 107.329 61, 44.278 70.197, 26.937 71.568 C 20.204 72.100, 17.743 71.918, 15.423 70.719 C 12.256 69.081, 3.576 69.408, 1.250 71.253 C -0.346 72.519, -0.383 81.217, 1.200 82.800 C 2.871 84.471, 6.382 84.341, 36.240 81.508 C 75.722 77.762, 107.800 72.492, 116.794 68.275 C 123.213 65.265, 124.880 56.883, 120.534 49.468 C 116.980 43.404, 111.279 40.991, 85.296 34.554 C 76.934 32.483, 69.284 30.190, 68.296 29.459 C 66.681 28.264, 67.357 27.727, 75.010 24.129 C 97.361 13.622, 137.686 7.170, 149.250 12.251 C 151.313 13.157, 153 14.334, 153 14.866 C 153 15.788, 149.353 17.385, 140.500 20.341 C 135.764 21.922, 133.528 25.574, 134.523 30.103 C 134.889 31.771, 135.780 33.362, 136.504 33.640 C 137.227 33.917, 141.129 32.615, 145.174 30.746 C 153.167 27.053, 157.916 22.448, 158.140 18.173 C 158.457 12.105, 157.711 7.392, 156.156 5.648 C 152.346 1.374, 149.080 0.594, 134 0.356 C 126.025 0.230, 118.600 0.340, 117.500 0.601 M 392 10 C 389.570 12.430, 389.353 18.236, 391.536 22.422 C 393.011 25.251, 392.956 25.451, 389.780 28.758 C 387.976 30.636, 382.675 35.226, 378 38.958 C 354.893 57.404, 336.343 67.061, 317.965 70.213 C 311.880 71.256, 310.779 71.207, 309.405 69.834 C 307.969 68.398, 308.017 67.887, 309.934 64.128 L 312.041 60 318.770 59.988 C 330.810 59.967, 340.679 56.251, 354.962 46.360 C 365.161 39.296, 367.699 35.649, 365.999 30.498 C 364.401 25.656, 360.230 23.593, 353.452 24.293 C 338.235 25.863, 311.725 42.041, 302.558 55.351 C 299.366 59.986, 298.545 62.144, 298.211 66.782 C 297.851 71.796, 298.105 72.829, 300.277 75.169 C 304.934 80.186, 312.430 81.087, 324.289 78.054 C 342.356 73.433, 367.767 58.103, 391.119 37.736 L 398.737 31.091 400.712 33.296 C 404.243 37.235, 406 40.397, 406 42.811 C 406 44.112, 404.425 48.758, 402.500 53.136 C 398.585 62.042, 397.821 69.678, 400.571 72.429 C 402.588 74.446, 405.898 74.385, 420 72.073 C 438.702 69.008, 456.670 67.749, 476.011 68.151 L 494.181 68.528 496.174 71.264 C 497.856 73.574, 498.898 74, 502.861 74 C 509.338 74, 512 71.951, 512 66.966 C 512 61.459, 509.731 60.299, 496.491 59.044 C 473.071 56.823, 435.558 58.022, 418.568 61.535 C 414.755 62.323, 411.428 62.761, 411.174 62.508 C 410.921 62.254, 411.712 59.674, 412.932 56.774 C 417.915 44.927, 416.596 37.335, 408.282 30.017 C 403.876 26.139, 403.832 26.038, 405.007 22.478 C 405.662 20.493, 405.912 17.343, 405.562 15.478 C 404.343 8.982, 396.277 5.723, 392 10 M 158.800 32.180 C 142.024 47.340, 128.891 60.313, 127.397 63.200 C 125.180 67.485, 125.682 70.836, 129.044 74.198 C 131.786 76.940, 132.504 77.175, 136.284 76.571 C 138.592 76.201, 144.535 73.977, 149.490 71.627 C 157.185 67.977, 163.988 64.067, 185.875 50.714 L 189.250 48.655 184.625 54.938 C 179.365 62.083, 178.898 64.988, 182.547 67.858 C 189.077 72.995, 191.579 72.160, 221.244 54.936 C 231.835 48.786, 240.950 43.525, 241.500 43.243 C 242.050 42.961, 238.641 46.728, 233.924 51.615 C 218.990 67.087, 199 91.049, 199 93.478 C 199 94.180, 199.614 95.264, 200.364 95.887 C 201.486 96.818, 200.214 100.567, 193.200 117.012 C 188.509 128.008, 184.549 136.882, 184.399 136.732 C 184.248 136.582, 182.316 126.609, 180.104 114.571 C 177.892 102.532, 175.685 92.285, 175.198 91.798 C 174.712 91.312, 170.555 91.046, 165.960 91.207 L 157.606 91.500 146.405 125.500 C 140.245 144.200, 135.152 159.050, 135.087 158.500 C 134.361 152.365, 123.995 92.802, 123.520 92.033 C 122.561 90.481, 102.323 90.679, 101.320 92.250 C 100.881 92.938, 93.661 109.025, 85.276 128 C 76.891 146.975, 70.025 161.825, 70.019 161 C 70.012 160.175, 70.683 155.450, 71.510 150.500 C 72.337 145.550, 73.256 140.037, 73.552 138.250 L 74.091 135 57.148 135 L 40.205 135 39.103 141.332 C 37.187 152.334, 37.014 152, 44.611 152 L 51.223 152 50.521 155.742 C 49.574 160.786, 49.567 160.792, 44.573 161.541 C 38.739 162.416, 30.244 159.908, 26.775 156.287 C 20.645 149.887, 18.941 138.443, 22.814 129.688 C 29.442 114.705, 51.481 105.170, 70.157 109.207 C 74.196 110.080, 77.678 110.624, 77.896 110.417 C 78.297 110.037, 80.850 96.531, 80.947 94.278 C 81.053 91.835, 70.050 89.528, 58.500 89.572 C 49.228 89.607, 46.348 90.025, 40.165 92.236 C 19.766 99.530, 6.590 113.205, 2.918 130.895 C 1.080 139.747, 2.134 151.709, 5.325 158.233 C 10.430 168.666, 21.729 176.721, 34.606 179.106 C 43.696 180.790, 51.107 179.597, 63.366 174.476 C 65.008 173.790, 65.098 173.947, 64.116 175.783 C 63.502 176.930, 63 178.139, 63 178.470 C 63 178.802, 67.369 178.944, 72.709 178.786 L 82.417 178.500 88.118 166 L 93.819 153.500 103.823 153.216 L 113.826 152.932 114.388 155.716 C 114.697 157.247, 115.666 162.775, 116.541 168 C 117.416 173.225, 118.475 177.850, 118.894 178.278 C 119.313 178.705, 126.334 178.930, 134.496 178.778 L 149.336 178.500 152.104 170 C 153.626 165.325, 157.008 154.838, 159.619 146.696 L 164.366 131.891 169.144 155.196 C 171.772 168.013, 173.939 178.613, 173.961 178.750 C 173.982 178.887, 176.684 179, 179.965 179 C 185.032 179, 186.102 178.679, 187.072 176.865 C 187.701 175.691, 192.829 164.019, 198.470 150.928 L 208.724 127.127 209.343 138.813 C 209.684 145.241, 210.259 156.912, 210.622 164.750 L 211.281 179 220.672 179 L 230.063 179 229.483 168.750 C 229.164 163.113, 228.260 143.683, 227.474 125.572 C 226.688 107.462, 225.628 92.228, 225.119 91.719 C 224.610 91.210, 221.900 90.953, 219.096 91.147 C 216.293 91.341, 213.999 91.336, 213.999 91.135 C 214.001 90.124, 230.134 74.353, 234.310 71.281 L 239.120 67.741 241.810 70.248 C 245.920 74.080, 248.370 75, 254.459 75 C 261.535 75, 268.780 72.457, 278.969 66.396 C 289.656 60.039, 298.221 52.993, 302.081 47.383 C 304.795 43.437, 305.166 42.165, 304.730 38.295 C 304.035 32.129, 302.105 30.450, 296.013 30.709 C 285.352 31.161, 271.330 37.393, 252.118 50.215 C 240.518 57.957, 240.552 57.865, 255.250 41.762 C 259.846 36.726, 263 32.402, 263 31.135 C 263 28.838, 259.755 25, 257.814 25 C 256.591 25, 226.592 42.251, 203.547 56.206 C 193.423 62.336, 190.425 63.747, 190.167 62.504 C 189.740 60.448, 195.990 52.188, 206.061 41.496 C 210.427 36.860, 214 32.252, 214 31.256 C 214 28.846, 211.236 25, 209.504 25 C 208.744 25, 205.957 26.879, 203.311 29.176 C 200.665 31.472, 194.900 35.698, 190.500 38.567 C 178.916 46.120, 142.819 65.992, 140.677 65.996 C 136.644 66.005, 140.201 61.907, 157.012 47.179 C 166.630 38.753, 174.888 31.165, 175.362 30.318 C 176.370 28.516, 173.205 23.680, 170.694 23.186 C 169.797 23.010, 164.595 26.943, 158.800 32.180 M 348 34.276 C 340.426 36.867, 334.878 39.990, 325.961 46.678 C 320.080 51.089, 319.751 51.526, 322.100 51.800 C 329.242 52.636, 360 37.306, 360 32.911 C 360 31.359, 354.795 31.951, 348 34.276 M 287.479 42.365 C 283.618 43.616, 277.093 46.270, 272.979 48.262 C 262.767 53.207, 245 63.842, 245 65.009 C 245 66.473, 249.624 67.303, 254.636 66.738 C 259.952 66.138, 270.505 61.090, 281 54.124 C 288.537 49.122, 296 42.536, 296 40.886 C 296 39.677, 295.510 39.762, 287.479 42.365 M 244.559 91.905 C 243.838 93.071, 231 173.151, 231 176.482 L 231 179 255.894 179 L 280.787 179 282.225 169.750 C 283.016 164.662, 283.488 160.162, 283.273 159.750 C 283.058 159.338, 276.159 159, 267.941 159 C 259.723 159, 253 158.699, 253 158.332 C 253 157.964, 253.496 154.814, 254.103 151.332 L 255.205 145 268.603 145 C 275.971 145, 282.001 144.887, 282.001 144.750 C 282.002 144.613, 282.677 140.675, 283.500 136 C 284.323 131.325, 284.998 126.938, 284.999 126.250 C 285 125.311, 281.612 125, 271.392 125 C 257.787 125, 257.783 124.999, 258.320 122.750 C 258.615 121.513, 259.165 118.362, 259.542 115.750 L 260.227 111 275.594 111 C 290.713 111, 290.970 110.964, 291.472 108.750 C 292.167 105.682, 293.983 93.794, 293.992 92.250 C 293.998 91.284, 288.449 91, 269.559 91 C 256.058 91, 244.868 91.405, 244.559 91.905 M 411.355 92.011 C 396.424 95.070, 382.606 109.842, 378.540 127.093 C 373.511 148.429, 381.625 169.153, 398.253 177.439 C 402.350 179.481, 404.866 180, 410.659 180 C 421.771 180, 427.917 177.290, 436.522 168.595 C 449.534 155.447, 454.549 138.437, 450.489 121.219 C 448.543 112.961, 445.809 107.779, 440.282 101.870 C 432.669 93.732, 421.514 89.929, 411.355 92.011 M 441.667 91.750 C 441.418 92.162, 445.871 102.632, 451.561 115.015 L 461.906 137.531 458.962 156.015 C 457.342 166.182, 456.013 175.512, 456.009 176.750 C 456 178.916, 456.332 179, 464.955 179 L 473.909 179 474.475 175.750 C 474.787 173.963, 476.086 165.672, 477.364 157.327 L 479.686 142.155 495.343 117.540 C 503.954 104.002, 511 92.492, 511 91.963 C 511 91.410, 506.760 91, 501.051 91 L 491.102 91 488.701 94.250 C 487.380 96.037, 483.460 102.112, 479.989 107.750 C 476.518 113.388, 473.388 118, 473.035 118 C 472.682 118, 470.455 112.938, 468.087 106.750 C 461.697 90.057, 462.688 91, 451.536 91 C 446.356 91, 441.915 91.338, 441.667 91.750 M 313.678 134.194 C 309.974 157.462, 306.956 177.093, 306.972 177.818 C 306.994 178.878, 311.444 179.073, 329.750 178.818 C 352.191 178.504, 352.568 178.464, 357.500 175.834 C 367.139 170.695, 374.984 159.970, 374.934 152 C 374.905 147.337, 372.953 142.116, 369.591 137.708 L 366.837 134.097 369.992 129.512 C 379.109 116.261, 377.108 104.650, 364.136 95.525 L 359.835 92.500 340.123 92.194 L 320.412 91.887 313.678 134.194 M 411.252 111.104 C 406.073 113.668, 402.510 117.739, 399.090 125 C 396.843 129.772, 396.500 131.823, 396.500 140.500 C 396.500 148.161, 396.912 151.254, 398.261 153.721 C 404.081 164.368, 414.134 165.301, 423.131 156.027 C 436.340 142.412, 435.918 116.042, 422.400 110.394 C 417.923 108.523, 416.251 108.630, 411.252 111.104 M 335.675 115.250 C 335.347 117.588, 334.780 120.963, 334.414 122.750 L 333.750 126 341.920 126 C 349.262 126, 350.340 125.751, 352.545 123.545 C 354.213 121.877, 355 119.973, 355 117.602 C 355 112.559, 352.263 111, 343.413 111 L 336.272 111 335.675 115.250 M 105.045 127.250 C 103.823 130.137, 102.590 133.063, 102.305 133.750 C 101.933 134.647, 103.119 135, 106.501 135 C 110.891 135, 111.178 134.844, 110.656 132.750 C 110.348 131.512, 109.792 128.588, 109.420 126.250 C 109.048 123.912, 108.412 122, 108.006 122 C 107.599 122, 106.267 124.362, 105.045 127.250 M 330.521 148.250 C 330.208 150.037, 329.564 153.676, 329.089 156.335 L 328.226 161.171 339.035 160.835 C 348.856 160.531, 350.080 160.278, 352.422 158.076 C 355.958 154.750, 355.933 149.879, 352.365 147.073 C 350.128 145.313, 348.325 145, 340.410 145 L 331.091 145 330.521 148.250 M 484.944 166.844 C 480.441 170.490, 483.264 179, 488.976 179 C 489.941 179, 491.916 178.067, 493.365 176.927 C 496.708 174.298, 496.845 170.142, 493.686 167.174 C 490.854 164.515, 487.956 164.405, 484.944 166.844 M 492.394 171.098 C 492.335 172.694, 492.672 174, 493.144 174 C 494.196 174, 494.290 169.296, 493.250 168.657 C 492.837 168.404, 492.452 169.502, 492.394 171.098 M 485 171.941 C 485 173.559, 485.356 175.102, 485.791 175.371 C 486.226 175.640, 486.402 174.316, 486.182 172.430 C 485.691 168.227, 485 167.941, 485 171.941" stroke="none" fill="#ffffff" fill-rule="evenodd"/></svg>